
<svg width="250px" height="53px" viewBox="0 0 250 53" version="1.1" xmlns="http://www.w3.org/2000/svg" xmlns:xlink="http://www.w3.org/1999/xlink">
    <defs>
        <filter x="-0.7%" y="-1.1%" width="101.4%" height="102.2%" filterUnits="objectBoundingBox" id="filter-1">
            <feOffset dx="0" dy="2" in="SourceAlpha" result="shadowOffsetOuter1"></feOffset>
            <feGaussianBlur stdDeviation="2" in="shadowOffsetOuter1" result="shadowBlurOuter1"></feGaussianBlur>
            <feColorMatrix values="0 0 0 0 0   0 0 0 0 0   0 0 0 0 0  0 0 0 0.5 0" type="matrix" in="shadowBlurOuter1" result="shadowMatrixOuter1"></feColorMatrix>
            <feMerge>
                <feMergeNode in="shadowMatrixOuter1"></feMergeNode>
                <feMergeNode in="SourceGraphic"></feMergeNode>
            </feMerge>
        </filter>
    </defs>
    <g id="Whisp_Updated_0419" stroke="none" stroke-width="1" fill="none" fill-rule="evenodd">
        <g id="Desktop-HD" transform="translate(-599.000000, -168.000000)" fill="#B8D6E5" fill-rule="nonzero">
            <g id="Shape" filter="url(#filter-1)" transform="translate(-198.000000, 1.000000)">
                <path id="Line-2" d="M1031.24721,177.547148 C1022.27555,184.285283 1016.2626,188.386199 1009.08257,192.274933 C998.779335,197.85521 989.184103,200.923061 980.208281,200.923061 C972.940068,200.923061 967.01191,199.27332 961.723829,196.08032 C957.711931,193.657893 954.897764,191.118996 949.563196,185.580661 L949.032309,185.029374 C943.96133,179.764523 941.363795,177.408326 937.753639,175.19729 C933.065189,172.325854 927.876334,170.850795 921.479252,170.850795 C915.10734,170.850795 909.420434,172.981947 903.753422,177.149133 C899.366669,180.374893 895.936964,183.836066 889.158074,191.427354 C888.84624,191.776613 888.84624,191.776613 888.534198,192.126157 C881.379873,200.139637 877.879767,203.678445 873.19374,207.122402 C866.970327,211.696248 860.609824,214.069545 853.439815,214.069545 C826.370801,214.069545 810.047647,198.320106 801.047452,170.155185 L800.743063,169.202637 L802.648158,168.593858 L802.952548,169.546405 C811.713665,196.963167 827.370334,212.069545 853.439815,212.069545 C860.152426,212.069545 866.109718,209.846698 872.009327,205.510829 C876.545121,202.177285 879.981186,198.703226 887.04227,190.794184 C887.354228,190.444734 887.354228,190.444734 887.666292,190.095218 C894.537432,182.400624 898.03267,178.873317 902.568592,175.537867 C908.55898,171.13289 914.648671,168.850795 921.479252,168.850795 C928.246544,168.850795 933.796649,170.428548 938.7982,173.491742 C942.598615,175.819302 945.287267,178.258151 950.472796,183.641931 L951.00366,184.193195 C956.221555,189.610399 958.940554,192.063437 962.757614,194.368219 C967.73365,197.372803 973.304326,198.923061 980.208281,198.923061 C988.801098,198.923061 998.094089,195.951844 1008.13009,190.516303 C1015.2638,186.65265 1021.25436,182.558133 1030.2838,175.769359 L1027.35603,170.366726 L1043,169.850795 L1034.02636,182.67553 L1031.24721,177.547148 Z"></path>
            </g>
        </g>
    </g>
</svg>
